<?xml version="1.0" encoding="UTF-8"?><svg id="Lager_2" xmlns="http://www.w3.org/2000/svg" viewBox="0 0 986.24 704.34"><defs><style>.cls-1{fill:#010101;}</style></defs><path class="cls-1" d="m394.64,29.49c-11.89-2.31-24.29-2.47-35.97,1.12s-21.27,10.18-28.96,19.08c-13.84,16.01-22.06,36.61-28.14,56.64-10.73,35.34-13.82,71.86-17.76,108.38-5.23,48.53-15.25,96.35-25.55,144.01-7.84,36.28-17.11,72.48-30.4,107.18-9.7,25.32-20.38,50.29-30.49,75.44-8.94,22.23-18.1,44.43-26.04,67.04-4.59,13.08-9.24,26.72-10.07,40.67-.57,9.56,1.83,18.99,8.55,26.04,11.73,12.29,31.56,14.85,47.63,12.06,18.7-3.25,34.35-16.17,46.13-30.4,13.88-16.77,24.39-35.99,33.96-55.46,7.47-15.18,14.74-30.51,20.99-46.24,6.53-16.44,12.04-33.27,17.18-50.19,14.83-48.82,26.98-98.43,35.61-148.73,1.58-9.19,3.04-18.4,4.39-27.62.74-5.01-1.93-9.13-7.23-9.49-11.27-.76-22.54-1.53-33.81-2.29-4.05-.27-7.5,3.64-7.5,7.5,0,4.29,3.44,7.23,7.5,7.5,11.27.76,22.54,1.53,33.81,2.29l-7.23-9.49c-6.75,45.92-16.24,91.42-28.48,136.19-6,21.97-12.31,43.88-19.62,65.46-2.5,7.38-5.13,14.72-7.95,21.98-1.23,3.18-2.52,6.33-3.82,9.48-.48,1.17.48-1.1-.34.8-.29.67-.58,1.35-.87,2.02-.6,1.39-1.22,2.77-1.84,4.15-8.15,18.08-16.66,36.13-26.5,53.36-4.83,8.46-10.43,17.37-16.1,24.73-2.99,3.88-6.21,7.6-9.63,11.1-1.55,1.58-3.14,3.12-4.79,4.59-.81.72-1.63,1.43-2.46,2.13s-1.84,1.48-1.94,1.55c-3.42,2.55-7.06,4.83-10.9,6.69-2.8,1.36-6.9,2.79-11.06,3.64-2.78.57-4.01.69-7.26.75-1.38.02-2.77,0-4.15-.07-.86-.04-1.73-.1-2.59-.18-.47-.04-.93-.09-1.4-.14-.78-.08.8.16-.58-.07-7.88-1.3-14.03-3.51-19.42-9.16-1.1-1.15.18.26.19.29-.17-.35-.5-.69-.72-1.02-.49-.74-.9-1.51-1.32-2.29-.65-1.2-.49-.26.11.36-.23-.23-.35-.89-.45-1.2-.3-.94-.58-1.89-.79-2.86-.1-.45-.14-.91-.25-1.35-.29-1.15.16,2.08.03.23-.07-1.07-.17-2.12-.18-3.19-.04-2.34.19-4.64.4-6.97.1-1.11-.28,1.7.05-.34.1-.65.21-1.3.32-1.94.26-1.46.55-2.92.87-4.36.7-3.18,1.54-6.33,2.44-9.46,5.33-18.52,12.61-36.5,19.69-54.41,12.87-32.54,26.23-64.87,39.29-97.34,10.54-26.22,18.71-53.41,25.57-80.79,5.65-22.53,10.3-45.29,15.02-68.02,4.73-22.75,9.27-45.54,12.89-68.49,3.48-22.05,5.97-44.19,8.11-66.41,1.62-16.81,3.38-30.83,6.48-47.4,3.68-19.62,8.71-39.95,16.46-57.97s17.92-36.18,36.75-42.84c9.88-3.49,20.91-3.61,30.12-1.82,3.97.77,8.09-1.12,9.23-5.24,1.01-3.68-1.24-8.45-5.24-9.23h0Z"/><path class="cls-1" d="m918.96,37.45c-29.88,6.79-50.91,33.05-63.91,59.26-13.06,26.34-20.37,55.05-25.81,83.81-2.89,15.28-5.18,30.56-6.11,46.09-1.45,24.14-1.61,48.37-2.2,72.54-1.35,55.08-2.41,110.29-6.28,165.26-.78,11.12-1.75,22.24-3.17,33.3-.26,2.02.08-.58.03-.24-.07.49-.13.97-.2,1.46-.13.94-.27,1.87-.4,2.8-.26,1.76-.53,3.52-.81,5.27-2.46,15.46-5.03,30.92-8.39,46.21-6.63,30.24-16.52,60.13-33.78,86.06-8.13,12.21-17.73,23.49-29.33,32.9-6.5,5.27-13.92,9.91-21.74,12.94-3.18,1.23-6.45,2.23-9.78,2.99-3.75.85-4.92,1.04-8.56,1.26-2.51.15-5.02.16-7.53,0-1.11-.07-2.22-.21-3.33-.3-1.8-.15,1.71.31.02,0-.45-.08-.9-.14-1.35-.22-3.99-.68-8.08,1.06-9.23,5.24-.99,3.61,1.22,8.54,5.24,9.23,31.14,5.33,59.78-11.04,80.44-33.33,19.94-21.52,33.69-47.74,43.13-75.36,9.58-28.04,14.65-57.44,19.12-86.66,1.45-9.5,2.58-19.04,3.43-28.6,4.13-45.99,5.06-92.33,6.37-138.45.9-31.77,1.42-63.56,2.46-95.32.28-8.51.62-17.03,1.28-25.53.27-3.45.59-6.89.99-10.32.1-.83.2-1.66.3-2.49.05-.41.11-.83.16-1.24.18-1.51-.23,1.57-.07.54.27-1.75.5-3.5.77-5.25,3.73-23.85,8.77-47.76,16.5-70.64,9.53-28.22,24.78-59.62,52.42-73.96,1.34-.7,2.71-1.36,4.1-1.95-1.4.6.68-.25.79-.3.61-.23,1.23-.46,1.85-.67,2.15-.74,4.33-1.36,6.55-1.86,3.95-.9,6.28-5.45,5.24-9.23-1.12-4.06-5.26-6.14-9.23-5.24h0Z"/><path class="cls-1" d="m332.3,676.89c24.39-30.39,45.81-63.11,62.61-98.32,21.62-45.31,35.69-94.02,40.47-144.04,4.28-44.76-1.71-89.57-.04-134.4.4-10.69,1.12-21.38,2.15-32.03.4-4.09.84-8.18,1.32-12.26.24-2,.49-3.99.75-5.98.07-.51.13-1.01.2-1.52-.05.34-.17,1.25.04-.3.18-1.29.36-2.57.55-3.86,2.76-19.03,6.51-37.91,11.18-56.56,11.93-47.62,29.83-93.59,52.18-137.27,3.25-6.35,6.59-12.65,10.02-18.91-4.57-1.93-9.14-3.85-13.71-5.78-8.61,44.05-13.18,88.91-13.15,133.8.03,50.42,6.01,100.6,17.52,149.68,7.53,32.12,16.78,63.69,21.9,96.34,1.39,8.84,2.2,14.97,3.2,24.1,1,9.12,1.78,18.26,2.35,27.42,1.27,20.35,1.51,40.77.86,61.15-1.6,49.59-8.59,98.87-19.33,147.27-1.54,6.97-3.17,13.91-4.86,20.84-2.08,8.51,8.93,12.67,13.71,5.78,27.96-40.32,50.65-84.26,67.28-130.42,12.89-35.76,22.57-73.03,28.31-110.61,6.77-44.3,9.16-89.35,12-134.03,1.36-21.38,2.54-42.78,3.42-64.19.77-18.72,1.81-37.28,4.1-55.89,2.89-23.45,7.63-46.88,16.23-68.95,3.35-8.59,7.84-18.04,12.83-26.98,6.19-11.08,13.22-21.76,21.06-31.74,4.66-5.94,9.59-11.66,14.7-17.22,6.53-7.09-4.05-17.73-10.61-10.61-18.09,19.64-33.76,41.65-45.23,65.8-9.72,20.46-16.16,42.01-20.19,64.29-7.37,40.67-7.6,81.86-9.95,122.99-2.7,47.32-5.29,94.93-11.34,141.96-.12.92-.24,1.84-.36,2.76.22-1.67-.05.36-.14.99-.26,1.91-.54,3.81-.83,5.72-.49,3.22-1,6.44-1.56,9.65-1.26,7.31-2.7,14.59-4.26,21.85-5.03,23.47-11.29,46.71-18.93,69.47-13.94,41.55-33.08,81.14-56.68,118.29-4.14,6.52-8.42,12.95-12.82,19.29,4.57,1.93,9.14,3.85,13.71,5.78,12.34-50.58,20.9-102.2,23.92-154.21,2.28-39.36,1.3-78.96-3.78-118.08-2.09-16.09-4.77-32.1-8.23-47.96-3.49-16.04-7.84-31.88-11.85-47.79-11.64-46.16-19.12-92.86-20.76-140.5-1.6-46.71,1.75-93.57,9.84-139.26.76-4.28,1.56-8.54,2.39-12.81.71-3.66-.72-7.39-4.34-8.85-3.35-1.35-7.54-.27-9.37,3.07-24.64,45.08-44.99,92.69-59,142.16-10.2,36.02-16.97,73.01-20.01,110.33-1.95,23.92-2.1,47.88-1.22,71.85.78,21.15,2.02,42.29,1.31,63.46-1.65,48.92-13.14,97.74-32.38,142.72-15.8,36.94-36.69,71.53-61.09,103.4-.65.85-1.62,2.1-2.9,3.73s-2.51,3.18-3.78,4.76c-2.53,3.16-3.08,7.52,0,10.61,2.62,2.62,8.06,3.18,10.61,0h0Z"/><path class="cls-1" d="m797.2,37.73c-26.18,50.01-46.89,103.06-60.65,157.83-7.74,30.8-11.78,62.18-15.98,93.61-.07.56-.48,3.57-.28,2.08-.16,1.16-.31,2.32-.47,3.49-.34,2.54-.69,5.07-1.04,7.61-.74,5.37-1.49,10.74-2.26,16.1-1.87,13.07-3.84,26.12-5.91,39.15-5.01,31.61-10.48,63.17-16.53,94.6-6.13,31.85-12.42,63.97-22.05,94.99-13.76,44.3-33.38,87.05-56.56,127.18-2.57,4.46-5.2,8.88-7.87,13.28-5.03,8.27,7.94,15.82,12.95,7.57,26.58-43.74,48.45-90.59,64.41-139.24,8.52-25.97,14.17-52.91,19.6-79.65,11.38-55.93,20.73-112.33,28.52-168.88,1.37-9.94,2.69-19.9,4.02-29.85.14-1.02.27-2.04.41-3.06.07-.51.48-3.6.21-1.59.29-2.12.57-4.25.87-6.37.52-3.77,1.04-7.53,1.59-11.3,2.13-14.57,4.64-29.08,7.89-43.44,11.75-51.97,30.29-102.58,53.84-150.34,2.68-5.43,5.43-10.83,8.24-16.19,4.47-8.54-8.47-16.14-12.95-7.57h0Z"/><path class="cls-1" d="m250.7,40.89c-22.55,40.85-40.9,84.72-52.2,130.04-9.59,38.46-12.13,78.66-17.59,117.39-7.31,51.8-18.4,103.1-33.07,153.3-7.74,26.5-16.43,52.78-26.68,78.42-17.81,44.55-39.68,87.52-64.93,128.32-2.31,3.74-4.66,7.46-7.03,11.16-2.18,3.41-.7,8.28,2.69,10.26,3.62,2.12,8.07.73,10.26-2.69,25.24-39.44,47.24-80.95,65.6-124.04,11.35-26.64,21.18-53.83,29.75-81.49,15.08-48.65,26.67-98.43,34.77-148.71,3.66-22.72,6.42-45.56,9.08-68.41.55-4.71,1.1-9.43,1.69-14.14.26-2.11.53-4.22.81-6.33-.02.15.3-2.27.16-1.22s.19-1.36.17-1.21c.17-1.22.34-2.45.52-3.67,1.31-9.17,2.85-18.31,4.73-27.39,9.39-45.5,26.6-89.58,48.12-130.66,1.99-3.81,4.03-7.59,6.11-11.35,4.67-8.46-8.28-16.03-12.95-7.57h0Z"/><path class="cls-1" d="m270.04,2.2l-1.34,1.34c-.73.68-1.25,1.48-1.55,2.41-.47.89-.68,1.86-.65,2.89-.04,1.03.18,2,.65,2.89.3.93.82,1.73,1.55,2.41l1.52,1.17c1.17.68,2.43,1.02,3.79,1.02l1.99-.27c1.27-.36,2.37-1,3.31-1.93l1.34-1.34c.73-.68,1.25-1.48,1.55-2.41.47-.89.68-1.86.65-2.89.04-1.03-.18-2-.65-2.89-.3-.93-.82-1.73-1.55-2.41l-1.52-1.17c-1.17-.68-2.43-1.02-3.79-1.02l-1.99.27c-1.27.36-2.37,1-3.31,1.93h0Z"/><path class="cls-1" d="m819.84,16.34h1.34c1.03.04,2-.18,2.89-.65.93-.3,1.73-.82,2.41-1.55.73-.68,1.25-1.48,1.55-2.41.47-.89.68-1.86.65-2.89l-.27-1.99c-.36-1.27-1-2.37-1.93-3.31l-1.52-1.17c-1.17-.68-2.43-1.02-3.79-1.02h-1.34c-1.03-.04-2,.18-2.89.65-.93.3-1.73.82-2.41,1.55-.73.68-1.25,1.48-1.55,2.41-.47.89-.68,1.86-.65,2.89.09.66.18,1.33.27,1.99.36,1.27,1,2.37,1.93,3.31l1.52,1.17c1.17.68,2.43,1.02,3.79,1.02h0Z"/></svg>