<?xml version="1.0" encoding="UTF-8"?>
<!-- Generated by Pixelmator Pro 3.2.3 -->
<svg width="227" height="161" viewBox="0 0 227 161" xmlns="http://www.w3.org/2000/svg" xmlns:xlink="http://www.w3.org/1999/xlink">
    <path id="Path" fill="#1d1d1b" stroke="none" d="M 11.62 140.269989 C 12.82 121.48999 12.07 102.619995 9.39 83.98999 C 8.32 76.540009 6.86 69.130005 6.21 61.630005 C 5.46 53.070007 5.6 44.420013 6.48 35.880005 C 7.26 28.25 8.7 20.690002 10.69 13.279999 L 8.23 12.950012 C 7.87 28.690002 9.43 44.51001 13.4 59.769989 C 16.940001 73.369995 22.059999 86.51001 25.879999 100.029999 C 28.780001 110.329987 31.690001 120.76001 31.889999 131.529999 C 31.91 132.87999 34.110001 133.300003 34.349998 131.860001 C 37.080002 115.5 37.580002 98.720001 34.52 82.369995 C 33.360001 76.140015 31.469999 70.130005 29.77 64.040009 C 27.450001 55.709991 26.139999 47.25 26.49 38.579987 C 26.860001 29.399994 28.92 20.359985 32.27 11.820007 L 29.809999 11.48999 C 29.209999 21.119995 29.59 30.799988 31.24 40.320007 C 32.41 47.070007 34.330002 53.589996 36.580002 60.049988 C 39.209999 67.600006 41.869999 75.119995 43.919998 82.850006 C 46.619999 93.01001 48.490002 103.309998 48.919998 113.839996 C 49.349998 124.369995 48.580002 133.919998 46.66 143.769989 C 46.349998 145.339996 48.759998 146.009995 49.07 144.429993 C 52.790001 125.399994 52.080002 105.980011 47.580002 87.149994 C 45.59 78.820007 42.98 70.700012 40.130001 62.630005 C 37.880001 56.25 35.709999 49.869995 34.330002 43.23999 C 32.16 32.809998 31.65 22.109985 32.310001 11.48999 C 32.400002 9.980011 30.33 9.940002 29.85 11.160004 C 23.65 26.950012 22.27 44.100006 26.280001 60.619995 C 27.83 67 30 73.200012 31.4 79.619995 C 32.889999 86.429993 33.73 93.359985 34.009998 100.320007 C 34.43 110.660004 33.619999 121.019989 31.92 131.220001 L 34.380001 131.550003 C 34.209999 122.059998 31.99 112.820007 29.49 103.709991 C 27.32 95.829987 24.959999 88.01001 22.389999 80.26001 C 18.27 67.829987 14.36 55.48999 12.45 42.48999 C 11.01 32.730011 10.52 22.839996 10.74 12.970001 C 10.77 11.559998 8.65 11.279999 8.28 12.640015 C 4.31 27.450012 2.56 42.920013 3.47 58.25 C 3.91 65.660004 5.18 72.959991 6.33 80.279999 C 7.77 89.459991 8.78 98.700012 9.29 107.980011 C 9.88 118.75 9.82 129.550003 9.14 140.309998 C 9.04 141.919998 11.54 141.909988 11.64 140.309998 L 11.64 140.309998 Z"/>
    <path id="path1" fill="#1d1d1b" stroke="none" d="M 37.91 13.540009 C 35.990002 34.790009 40.849998 56.519989 52.650002 74.410004 C 56 79.48999 59.869999 84.23999 64.139999 88.579987 C 65.269997 89.730011 67.040001 87.959991 65.910004 86.809998 C 49.889999 70.529999 40.799999 48.730011 40.060001 25.950012 C 39.919998 21.809998 40.060001 17.670013 40.419998 13.549988 C 40.560001 11.950012 38.060001 11.959991 37.919998 13.549988 L 37.919998 13.549988 Z"/>
    <path id="path2" fill="#1d1d1b" stroke="none" d="M 51.66 13.76001 C 50.32 31.920013 52.060001 50.25 57.459999 67.660004 C 59.700001 74.899994 62.349998 82 64.139999 89.380005 C 65.809998 96.279999 66.839996 103.320007 67.260002 110.410004 C 67.910004 121.440002 67.139999 132.529999 65.309998 143.419998 C 65.050003 144.98999 67.449997 145.669998 67.720001 144.080002 C 70.639999 126.75 70.940002 108.950012 67.239998 91.709991 C 65.709999 84.570007 63.34 77.679993 61.07 70.73999 C 58.259998 62.149994 56.02 53.429993 54.91 44.450012 C 53.639999 34.279999 53.41 23.980011 54.169998 13.76001 C 54.290001 12.149994 51.790001 12.160004 51.669998 13.76001 L 51.669998 13.76001 Z"/>
    <path id="path3" fill="#1d1d1b" stroke="none" d="M 102.940002 13.850006 C 92.93 29.019989 87.160004 47.029999 86.669998 65.209991 C 86.110001 86.25 92.779999 106.980011 104.919998 124.109985 C 108.419998 129.050003 112.330002 133.709991 116.68 137.929993 C 117.830002 139.050003 119.599998 137.289993 118.449997 136.159988 C 108.760002 126.75 101.019997 115.160004 95.970001 102.640015 C 87.440002 81.519989 87 57.869995 94.540001 36.399994 C 97.169998 28.910004 100.730003 21.73999 105.099998 15.109985 C 105.989998 13.76001 103.82 12.51001 102.940002 13.850006 L 102.940002 13.850006 Z"/>
    <path id="path4" fill="#1d1d1b" stroke="none" d="M 175.600006 11.029999 C 174 21.519989 174.279999 32.209991 176.660004 42.559998 C 178.330002 49.829987 181.089996 56.640015 184.369995 63.309998 C 189.910004 74.609985 191.580002 87.589996 191.990005 100.029999 C 192.399994 112.470001 191.479996 124.350006 189.979996 136.399994 C 189.779999 137.98999 192.279999 137.979996 192.479996 136.399994 C 194.789993 117.859985 195.970001 98.589996 192.380005 80.119995 C 191.330002 74.700012 189.789993 69.380005 187.580002 64.309998 C 186.679993 62.26001 185.630005 60.290009 184.679993 58.26001 C 182.990005 54.610016 181.559998 50.850006 180.419998 46.98999 C 177.020004 35.559998 176.220001 23.480011 178.020004 11.690002 C 178.259995 10.119995 175.850006 9.440002 175.610001 11.029999 L 175.610001 11.029999 Z"/>
    <path id="path5" fill="#1d1d1b" stroke="none" d="M 111.459999 27.790009 C 101.470001 43.619995 100.400002 62.950012 103.550003 80.970001 C 104.43 85.98999 105.660004 90.910004 107.379997 95.700012 C 108.980003 100.170013 110.949997 104.5 112.919998 108.820007 C 114.889999 113.140015 116.809998 117.369995 119.339996 121.299988 C 120.669998 123.359985 123.18 127.339996 126.209999 126.369995 C 128.699997 125.570007 129.350006 122 129.729996 119.809998 C 130.330002 116.309998 130.490005 112.730011 130.529999 109.179993 C 130.600006 103.130005 130.169998 97.190002 129.270004 91.200012 C 127.790001 81.359985 125.870003 71.600006 124.209999 61.799988 C 122.970001 54.459991 123.379997 47.079987 124.559998 39.73999 C 125.419998 34.420013 126.519997 29.149994 127.940002 23.950012 C 128.729996 21.049988 130.029999 18 130.240005 14.980011 C 130.419998 12.459991 128.300003 11.720001 126.209999 12.619995 C 122.360001 14.279999 119.110001 17.950012 116.449997 21.070007 C 114.639999 23.200012 112.970001 25.450012 111.459999 27.799988 C 110.589996 29.160004 112.75 30.410004 113.620003 29.059998 C 116.379997 24.76001 119.690002 20.700012 123.589996 17.369995 C 124.75 16.380005 126.040001 15.320007 127.480003 14.790009 C 127.650002 14.730011 127.919998 14.670013 127.910004 14.679993 C 128.149994 14.609985 128.029999 14.76001 127.940002 14.649994 C 127.919998 14.619995 127.660004 14.309998 127.690002 14.320007 C 127.800003 14.339996 127.730003 14.589996 127.739998 14.470001 C 127.650002 16.609985 126.629997 19.329987 125.980003 21.630005 C 124.620003 26.440002 123.519997 31.309998 122.629997 36.230011 C 121.260002 43.829987 120.279999 51.720001 121.32 59.429993 C 122.459999 67.899994 124.279999 76.309998 125.699997 84.730011 C 126.779999 91.160004 127.82 97.579987 127.980003 104.109985 C 128.059998 107.160004 128.050003 110.209991 127.900002 113.25 C 127.75 116.290009 127.580002 119.5 126.529999 122.359985 C 126.370003 122.790009 126.18 123.230011 125.910004 123.609985 C 125.739998 123.839996 125.540001 124.01001 125.449997 124.029999 C 125.290001 124.049988 125.050003 124.01001 124.669998 123.779999 C 124.099998 123.429993 123.639999 122.899994 123.199997 122.399994 C 120.459999 119.230011 118.629997 115.130005 116.839996 111.369995 C 112.739998 102.769989 108.860001 94.040009 106.82 84.690002 C 103.339996 68.779999 103.059998 51.320007 109.809998 36.209991 C 110.910004 33.73999 112.199997 31.369995 113.639999 29.089996 C 114.5 27.730011 112.339996 26.470001 111.480003 27.829987 Z"/>
    <path id="path6" fill="#1d1d1b" stroke="none" d="M 141.639999 140.269989 C 142.839996 121.48999 142.089996 102.619995 139.410004 83.98999 C 138.339996 76.540009 136.880005 69.130005 136.229996 61.630005 C 135.479996 53.070007 135.619995 44.420013 136.5 35.880005 C 137.279999 28.25 138.720001 20.690002 140.710007 13.279999 L 138.25 12.950012 C 137.889999 28.690002 139.449997 44.51001 143.419998 59.769989 C 146.960007 73.369995 152.080002 86.51001 155.899994 100.029999 C 158.800003 110.329987 161.710007 120.76001 161.910004 131.529999 C 161.929993 132.87999 164.130005 133.300003 164.369995 131.860001 C 167.100006 115.5 167.600006 98.720001 164.539993 82.369995 C 163.380005 76.140015 161.490005 70.130005 159.789993 64.040009 C 157.470001 55.709991 156.160004 47.25 156.509995 38.579987 C 156.880005 29.399994 158.940002 20.359985 162.289993 11.820007 L 159.830002 11.48999 C 159.229996 21.119995 159.610001 30.799988 161.259995 40.320007 C 162.429993 47.070007 164.350006 53.589996 166.600006 60.049988 C 169.229996 67.600006 171.889999 75.119995 173.940002 82.850006 C 176.639999 93.01001 178.509995 103.309998 178.940002 113.839996 C 179.369995 124.369995 178.600006 133.919998 176.679993 143.769989 C 176.369995 145.339996 178.779999 146.009995 179.089996 144.429993 C 182.809998 125.399994 182.100006 105.980011 177.600006 87.149994 C 175.610001 78.820007 173 70.700012 170.149994 62.630005 C 167.899994 56.25 165.729996 49.869995 164.350006 43.23999 C 162.179993 32.809998 161.669998 22.109985 162.330002 11.48999 C 162.419998 9.980011 160.350006 9.940002 159.869995 11.160004 C 153.669998 26.950012 152.289993 44.100006 156.300003 60.619995 C 157.850006 67 160.020004 73.200012 161.419998 79.619995 C 162.910004 86.429993 163.75 93.359985 164.029999 100.320007 C 164.449997 110.660004 163.639999 121.019989 161.940002 131.220001 L 164.399994 131.550003 C 164.229996 122.059998 162.009995 112.820007 159.509995 103.709991 C 157.339996 95.829987 154.979996 88.01001 152.410004 80.26001 C 148.289993 67.829987 144.380005 55.48999 142.470001 42.48999 C 141.029999 32.730011 140.539993 22.839996 140.759995 12.970001 C 140.789993 11.559998 138.669998 11.279999 138.300003 12.640015 C 134.330002 27.450012 132.580002 42.920013 133.490005 58.25 C 133.929993 65.660004 135.199997 72.959991 136.350006 80.279999 C 137.789993 89.459991 138.800003 98.700012 139.309998 107.980011 C 139.899994 118.75 139.839996 129.550003 139.160004 140.309998 C 139.059998 141.919998 141.559998 141.909988 141.660004 140.309998 L 141.660004 140.309998 Z"/>
    <path id="path7" fill="#1d1d1b" stroke="none" d="M 202.229996 11.679993 C 200.630005 22.170013 200.910004 32.860016 203.289993 43.209991 C 204.960007 50.480011 207.720001 57.290009 211 63.959991 C 216.539993 75.26001 218.210007 88.23999 218.619995 100.679993 C 219.029999 113.119995 218.110001 125 216.610001 137.050003 C 216.410004 138.639999 218.910004 138.62999 219.110001 137.050003 C 221.419998 118.51001 222.600006 99.23999 219.009995 80.769989 C 217.960007 75.350006 216.419998 70.029999 214.210007 64.959991 C 213.309998 62.910004 212.259995 60.940002 211.309998 58.910004 C 209.619995 55.26001 208.190002 51.5 207.050003 47.640015 C 203.649994 36.209991 202.850006 24.130005 204.649994 12.339996 C 204.889999 10.769989 202.479996 10.089996 202.240005 11.679993 L 202.240005 11.679993 Z"/>
    <path id="path8" fill="#1d1d1b" stroke="none" d="M 177.130005 12.559998 L 188.520004 12.670013 C 190.130005 12.690002 190.130005 10.190002 188.520004 10.170013 L 177.130005 10.059998 C 175.520004 10.040009 175.520004 12.540009 177.130005 12.559998 L 177.130005 12.559998 Z"/>
    <path id="path9" fill="#1d1d1b" stroke="none" d="M 191.899994 137.459991 C 197.179993 137.589996 202.470001 137.709991 207.75 137.839996 C 209.360001 137.87999 209.360001 135.37999 207.75 135.339996 C 202.470001 135.209991 197.179993 135.089996 191.899994 134.959991 C 190.289993 134.919998 190.289993 137.419998 191.899994 137.459991 L 191.899994 137.459991 Z"/>
    <path id="path10" fill="#1d1d1b" stroke="none" d="M 188.520004 69.089996 L 197.679993 69.200012 C 198.360001 69.200012 198.929993 68.619995 198.929993 67.950012 C 198.929993 67.279999 198.360001 66.709991 197.679993 66.700012 L 188.520004 66.589996 C 187.839996 66.589996 187.270004 67.170013 187.270004 67.839996 C 187.270004 68.51001 187.839996 69.079987 188.520004 69.089996 L 188.520004 69.089996 Z"/>
    <path id="path11" fill="#1d1d1b" stroke="none" d="M 197.679993 12.609985 L 209.070007 12.720001 C 210.679993 12.73999 210.679993 10.23999 209.070007 10.220001 L 197.679993 10.109985 C 196.070007 10.089996 196.070007 12.589996 197.679993 12.609985 L 197.679993 12.609985 Z"/>
    <path id="path12" fill="#1d1d1b" stroke="none" d="M 182.600006 11.26001 L 190.279999 1.859985 C 190.710007 1.339996 190.789993 0.600006 190.279999 0.089996 C 189.839996 -0.350006 188.940002 -0.440002 188.509995 0.089996 L 180.830002 9.48999 C 180.399994 10.01001 180.320007 10.75 180.830002 11.26001 C 181.270004 11.700012 182.169998 11.790009 182.600006 11.26001 L 182.600006 11.26001 Z"/>
</svg>
